<svg width="135" height="135" viewBox="0 0 135 135" fill="none" xmlns="http://www.w3.org/2000/svg">
<g id="upload foto 2.0-12 1">
<g id="tshirt">
<path id="Vector" d="M33.1318 71.0286L31.0055 76.3422L30.6971 77.1124L31.1851 76.7404C30.9826 76.7195 30.7801 76.6939 30.583 76.6682C30.5506 76.6642 30.3974 76.6439 30.5155 76.6601L30.3609 76.6392L29.964 76.5825C29.6549 76.5375 29.3462 76.4889 29.0379 76.4367C27.3178 76.1549 25.6145 75.7788 23.9356 75.3101C22.0274 74.7701 20.1556 74.0951 18.4181 73.1326C16.8386 72.2551 15.116 71.4113 13.3064 71.1609C12.6779 71.0738 11.8605 71.0002 11.2814 71.3411L12.0239 71.9128C12.3384 71.1028 12.6611 70.3009 12.9817 69.4963C13.7588 67.5469 14.5432 65.6005 15.3347 63.6569C16.3378 61.1945 17.3552 58.7382 18.3871 56.2879C19.3996 53.8944 20.4269 51.5069 21.5049 49.1424C22.2778 47.4468 23.052 45.7336 23.9882 44.1204C24.0634 43.9908 24.1406 43.8625 24.2198 43.7356C24.5654 43.1808 23.6899 42.6718 23.3423 43.2247C22.4236 44.7002 21.7 46.3074 20.9723 47.8822C19.8984 50.2035 18.8798 52.5518 17.8802 54.9022C16.8141 57.4082 15.7672 59.9224 14.7394 62.4446C13.8983 64.5011 13.0658 66.5612 12.2419 68.6249C11.9755 69.2918 11.71 69.9589 11.4454 70.6263C11.3192 70.9442 11.168 71.2635 11.0647 71.5902C11.0593 71.6077 11.0512 71.6246 11.0444 71.6415C10.8784 72.0674 11.4339 72.4225 11.7869 72.2132C11.897 72.1457 11.7059 72.2301 11.766 72.2186C11.849 72.2024 11.9307 72.1653 12.0144 72.1477C12.0745 72.1349 12.2513 72.1147 12.0934 72.1309C12.1778 72.1221 12.2621 72.1147 12.3465 72.1106C12.5533 72.1031 12.7603 72.1099 12.9662 72.1309C13.0688 72.1383 13.1709 72.1518 13.2719 72.1714C13.4319 72.1984 13.5905 72.2308 13.7485 72.2672C14.1086 72.3521 14.4642 72.4555 14.8136 72.577C15.8261 72.9247 16.79 73.3951 17.7263 73.9081C21.0338 75.7232 24.7206 76.7107 28.423 77.3506C29.3349 77.5086 30.2536 77.6537 31.175 77.7482C31.4119 77.7725 31.5854 77.57 31.663 77.3763L33.7886 72.0613L34.097 71.2912C34.1996 71.0353 33.985 70.7377 33.7433 70.6681C33.4558 70.5858 33.2216 70.7687 33.1203 71.0218L33.1318 71.0286Z" fill="#1B1B1B"/>
<path id="Vector_2" d="M81.5351 26.4814C81.6162 26.4788 81.6973 26.4806 81.7781 26.4868C81.8996 26.4935 81.6722 26.4631 81.7957 26.4868C81.8483 26.4982 81.9017 26.5077 81.9543 26.5205C82.0448 26.5428 82.1332 26.5705 82.2243 26.6008C82.277 26.6191 82.3296 26.6393 82.3816 26.6596C82.4039 26.6683 82.4707 26.696 82.3681 26.6528C82.3985 26.6656 82.4295 26.6791 82.4592 26.6933C82.9527 26.9295 83.4267 27.2044 83.8767 27.5155C85.1322 28.3606 86.3067 29.3258 87.4913 30.2647C90.6787 32.7906 93.9342 35.2793 97.5893 37.0984C99.7952 38.1967 102.133 39.0512 104.569 39.4562L104.197 38.9682C104.208 39.0959 104.21 39.2243 104.202 39.3523C104.196 39.5095 104.181 39.6661 104.164 39.8248C104.152 39.928 104.164 39.8457 104.16 39.8545C104.152 39.9071 104.144 39.9598 104.135 40.0118C104.115 40.136 104.092 40.2595 104.068 40.3823C103.757 41.8484 103.116 43.2281 102.359 44.5133C101.037 46.7584 99.2728 48.6983 97.6872 50.7544C96.353 52.4851 95.0617 54.2482 93.8134 56.0437C93.2363 56.8746 92.6625 57.7096 92.1164 58.5614L92.809 58.3799C91.3019 57.4038 89.7944 56.428 88.2865 55.4524C87.4814 54.9329 86.7312 54.3329 86.0475 53.6616C85.5831 53.2039 84.8663 53.9194 85.3313 54.3778C86.2851 55.3174 87.3658 56.0653 88.4829 56.7902L91.4887 58.7369L92.2926 59.2574C92.5289 59.4106 92.8427 59.2979 92.9852 59.0758C94.5775 56.5898 96.3244 54.1928 98.1152 51.8465C100.692 48.4641 103.913 45.2241 104.966 40.9716C105.122 40.3445 105.282 39.627 105.207 38.9743C105.183 38.7718 105.068 38.5247 104.835 38.4862C100.535 37.7714 96.6308 35.6782 93.0803 33.226C91.4691 32.1136 89.9213 30.9148 88.3871 29.6998C87.1451 28.7163 85.9166 27.7065 84.6138 26.804C83.7505 26.2053 82.6435 25.4155 81.5351 25.4716C80.8865 25.5046 80.8831 26.5171 81.5351 26.4841V26.4814Z" fill="#1B1B1B"/>
<path id="Vector_3" d="M46.1287 36.8178C47.2309 36.7199 48.3285 36.4695 49.3977 36.1968C52.2145 35.4786 54.9475 34.4175 57.5584 33.1451C59.6639 32.1137 61.6977 30.9422 63.6463 29.6385C64.1863 29.2801 63.6989 28.3911 63.1549 28.7529C58.3198 31.9727 52.8341 34.6517 47.0696 35.6676C46.8124 35.7128 46.5546 35.754 46.2961 35.7878L46.1779 35.8026C46.0429 35.8208 46.2934 35.7911 46.2164 35.7986L46.1489 35.8053C45.8789 35.8296 45.6379 36.0078 45.6319 36.3001C45.6265 36.5505 45.8526 36.8401 46.1266 36.8171L46.1287 36.8178Z" fill="#1B1B1B"/>
<path id="Vector_4" d="M108.547 91.2207C108.379 91.3422 92.1935 102.952 77.9578 104.211C63.6478 105.477 53.1319 106.668 46.3752 112.281C46.4596 112.2 50.98 106.19 54.6777 102.966C58.7837 99.3889 65.6127 94.6639 81.8127 95.8789C97.9027 97.0844 108.399 91.3031 108.547 91.2207Z" fill="#1B1B1B"/>
<path id="Vector_5" d="M26.1448 42.5037C28.2008 41.7153 30.269 40.9573 32.3359 40.1986C33.4897 39.7751 34.6439 39.353 35.7986 38.9323C36.8111 38.5624 37.8351 38.1094 38.8787 37.8259C40.0646 37.504 41.2655 37.909 42.0964 38.7878C42.6949 39.4263 43.3341 40.0254 44.01 40.5813C45.765 42.0109 47.79 43.1551 50.006 43.6714C52.3631 44.2202 54.9707 44.0832 57.1779 43.0457C58.8985 42.2357 60.2593 40.8236 61.1908 39.1827C62.0636 37.6444 62.5988 35.9245 62.9161 34.1877C63.0558 33.4243 63.1557 32.6527 63.2212 31.8799C63.2792 31.1914 63.1638 30.3274 63.6302 29.7637C63.9677 29.3587 64.4207 29.2663 64.9127 29.1805L66.2722 28.9443C67.372 28.7544 68.4722 28.5665 69.5729 28.3807C71.9915 27.9757 74.412 27.5707 76.8386 27.2122C77.3467 27.1366 77.8554 27.0633 78.3648 26.9922C78.6348 26.9544 78.7853 26.6081 78.7185 26.3692C78.6368 26.0776 78.3689 25.9777 78.0955 26.0155C73.5858 26.6405 69.0957 27.4269 64.611 28.2085C64.0771 28.3017 63.5985 28.4482 63.1719 28.8005C62.7115 29.1853 62.4074 29.7248 62.3167 30.3179C62.2154 30.9929 62.2364 31.6875 62.1648 32.3645C61.9961 33.9697 61.641 35.6322 61.0369 37.1665C60.4024 38.7777 59.4169 40.3214 58.0109 41.3663C56.1836 42.7258 53.811 43.1375 51.5788 42.9114C49.3061 42.6812 47.1771 41.6775 45.3512 40.339C44.6056 39.7865 43.9037 39.1771 43.252 38.5165C42.8895 38.1526 42.5561 37.7686 42.1362 37.4662C41.6404 37.1104 41.0707 36.8709 40.4696 36.7655C39.8355 36.6522 39.184 36.6831 38.5634 36.856C38.0646 36.9984 37.5786 37.2036 37.0913 37.3811C35.9955 37.7794 34.9 38.1787 33.8047 38.5792C31.5738 39.3946 29.3429 40.2127 27.1222 41.0491C26.7082 41.2048 26.2946 41.3623 25.8815 41.5216C25.2794 41.7524 25.544 42.7318 26.1515 42.4976L26.1448 42.5037Z" fill="#1B1B1B"/>
<path id="Vector_6" d="M85.9611 57.3791C87.7554 61.6753 89.7797 65.8717 92.0253 69.9503C94.7651 74.9284 97.8411 79.7378 101.377 84.1874C103.463 86.8138 105.72 89.3086 108.191 91.5793L108.293 90.7841C106.161 91.8763 104.005 92.6741 101.65 93.366C95.8904 95.0623 89.8478 95.7332 83.8531 95.4909C81.982 95.4153 80.117 95.2398 78.2458 95.1669C76.6299 95.1041 75.0119 95.0859 73.3953 95.1379C70.8654 95.2189 68.322 95.4646 65.8542 96.0464C63.9104 96.4949 62.034 97.197 60.2733 98.1349C58.6979 98.9847 57.2486 100.045 55.8858 101.204C52.2827 104.275 49.2263 107.962 46.2556 111.632C46.1766 111.729 46.1017 111.834 46.0153 111.926L46.8793 112.284C46.4743 108.749 45.7399 105.235 44.965 101.768C43.2174 93.9465 40.865 86.2643 38.3399 78.6645C37.4907 76.1056 36.6119 73.5561 35.6777 71.0276C35.4536 70.4201 34.4748 70.6833 34.7016 71.2976C36.8103 77.0054 38.6706 82.807 40.429 88.6316C42.4391 95.2891 44.1779 102.041 45.3565 108.9C45.5043 109.76 45.6427 110.622 45.7615 111.486C45.7795 111.615 45.7973 111.743 45.8148 111.871C45.7892 111.684 45.8303 111.989 45.8384 112.056C45.8465 112.124 45.858 112.208 45.8661 112.284C45.9127 112.689 46.4007 112.989 46.7301 112.642C47.0595 112.295 47.3525 111.876 47.6603 111.5C48.4149 110.577 49.1799 109.664 49.9553 108.759C51.7406 106.68 53.5807 104.641 55.6104 102.794C56.9003 101.622 58.2429 100.535 59.7279 99.6212C61.3309 98.6368 63.0597 97.8739 64.8674 97.3532C70.2748 95.7818 76.1216 95.9681 81.6749 96.3758C87.9787 96.8382 94.3534 96.3515 100.474 94.7444C102.363 94.2543 104.219 93.6456 106.032 92.9219C106.925 92.5621 107.835 92.1922 108.68 91.7258C108.721 91.7035 108.761 91.6812 108.802 91.6583C109.085 91.5131 109.136 91.0757 108.904 90.8631C104.584 86.8928 100.916 82.2521 97.6805 77.3699C94.8164 73.0499 92.2764 68.5118 89.999 63.855C88.9142 61.6363 87.8869 59.3885 86.9351 57.1097C86.8292 56.8553 86.5976 56.6804 86.3121 56.756C86.0732 56.8188 85.8531 57.1266 85.9584 57.3791H85.9611Z" fill="#1B1B1B"/>
<path id="Vector_7" d="M20.1114 85.6503C20.2052 85.6746 20.297 85.707 20.3881 85.7394C20.5015 85.7792 20.6129 85.8231 20.7256 85.8676L20.8289 85.9102C20.7466 85.8764 20.7459 85.8737 20.837 85.9142C20.9281 85.9547 21.0017 85.9871 21.0841 86.0249C22.1222 86.5048 23.1016 87.1117 24.0338 87.7718C24.754 88.2821 25.3231 88.7317 26.0116 89.3243C26.827 90.0236 27.6086 90.7621 28.3599 91.5295C30.3376 93.5505 32.1102 95.7659 33.7295 98.0811C35.9725 101.288 37.9348 104.687 39.7012 108.178C39.9604 108.69 40.2156 109.205 40.4667 109.721C40.7515 110.307 41.625 109.794 41.3442 109.21C39.5527 105.53 37.5642 101.939 35.2753 98.5448C33.5918 96.0473 31.747 93.643 29.6829 91.4452C28.2633 89.9162 26.7112 88.5158 25.045 87.2602C24.0426 86.5143 22.9869 85.8278 21.863 85.2784C21.4027 85.0529 20.9059 84.7971 20.4023 84.6796L20.3848 84.6749C19.7536 84.5102 19.485 85.4849 20.1148 85.651L20.1114 85.6503Z" fill="#1B1B1B"/>
<path id="Vector_8" d="M20.3802 105.903C20.7852 105.809 21.1902 105.741 21.6006 105.676C22.096 105.599 22.3431 105.566 22.8635 105.51C23.4445 105.448 24.027 105.403 24.6111 105.375C27.4589 105.24 30.4343 105.485 33.0823 106.614C34.6855 107.298 36.1549 108.335 37.2255 109.719C37.3936 109.937 37.6588 110.048 37.918 109.901C38.1327 109.778 38.2663 109.424 38.0996 109.208C36.0476 106.548 32.9426 105.141 29.683 104.618C27.0505 104.196 24.3559 104.262 21.718 104.639C21.178 104.716 20.638 104.8 20.1102 104.924C19.4757 105.072 19.7443 106.048 20.3802 105.9V105.903Z" fill="#1B1B1B"/>
<path id="Vector_9" d="M40.2158 59.0876C39.827 60.3876 39.6657 61.7815 39.5408 63.1261C39.2242 66.5774 39.4584 70.0786 40.1058 73.4759C40.5456 75.7501 41.1691 77.9849 41.9701 80.1584C42.6316 81.9701 43.3991 83.7622 44.4001 85.4159C45.6981 87.5645 47.5922 89.8082 50.2598 90.064C52.8869 90.3165 55.2764 88.3603 56.8626 86.4791C57.6254 85.5739 58.2457 84.5121 58.3429 83.3106C58.4066 82.419 58.1204 81.5377 57.5451 80.8536C56.4603 79.5333 54.4617 79.0399 52.8572 79.561C51.9512 79.8547 51.179 80.4606 50.6783 81.2708C50.0229 82.3271 49.8723 83.613 49.9297 84.8314C50.0769 87.9458 51.3708 90.9516 53.9831 92.7633C56.299 94.3698 59.3041 94.739 62.0028 94.0343C62.7069 93.8463 63.3915 93.5916 64.0473 93.2736C64.6346 92.9928 64.1216 92.1194 63.5364 92.3961C61.2157 93.5058 58.4739 93.7076 56.0695 92.7437C53.5774 91.7447 51.871 89.5233 51.2426 86.9502C50.926 85.6542 50.7633 84.1787 51.0954 82.8793C51.1965 82.4397 51.3798 82.0231 51.6354 81.6515C51.845 81.3635 52.0983 81.1101 52.386 80.9002C52.5477 80.792 52.7182 80.6976 52.8957 80.618C52.9179 80.6079 52.8525 80.6336 52.9389 80.6005C52.98 80.585 53.0219 80.5695 53.0637 80.5546C53.1614 80.5209 53.2602 80.4914 53.3601 80.4662C53.4525 80.4425 53.5464 80.425 53.6402 80.4068C53.6773 80.3993 53.7711 80.3872 53.68 80.3987C53.7306 80.3919 53.7819 80.3865 53.8332 80.3825C54.0231 80.3661 54.214 80.3632 54.4043 80.3737C54.4992 80.3791 54.594 80.3876 54.6885 80.3993C54.5879 80.3865 54.8275 80.4243 54.8781 80.4344C55.0631 80.4722 55.2453 80.5225 55.4235 80.585C55.4647 80.5991 55.5052 80.6147 55.5457 80.6302C55.6618 80.6741 55.5234 80.6174 55.6044 80.6538C55.6854 80.6903 55.7732 80.7321 55.8555 80.776C56.0185 80.8628 56.175 80.9612 56.324 81.0703C56.3442 81.0851 56.2828 81.0345 56.355 81.0946C56.3928 81.1257 56.4306 81.1574 56.4671 81.1898C56.535 81.2501 56.6005 81.3131 56.6635 81.3788C56.7265 81.4445 56.7861 81.512 56.8424 81.5813C56.9031 81.6562 56.8086 81.532 56.864 81.611C56.8917 81.6508 56.92 81.6906 56.9463 81.7311C56.9954 81.8072 57.0404 81.8852 57.0813 81.9653C57.1009 82.0025 57.1191 82.0403 57.1374 82.0781C57.1772 82.1604 57.1603 82.13 57.161 82.1314C57.2264 82.3056 57.2767 82.4852 57.3115 82.668C57.3345 82.7841 57.3115 82.6403 57.3216 82.7301C57.3264 82.7747 57.3304 82.8199 57.3331 82.8651C57.3392 82.965 57.3405 83.0676 57.3365 83.1648C57.3361 83.3498 57.31 83.5338 57.2589 83.7116C57.1395 84.192 56.9368 84.6477 56.6601 85.0582C55.9615 86.1544 54.9281 87.1412 53.8704 87.8885C53.0158 88.4926 51.9939 88.9853 51.0077 89.0562C50.0377 89.1237 49.171 88.8659 48.3421 88.3421C47.3256 87.7001 46.5115 86.7551 45.8352 85.7771C44.8861 84.4007 44.1402 82.8827 43.5078 81.3383C42.6928 79.3482 42.0279 77.2999 41.5185 75.2106C40.6788 71.7681 40.2921 68.2061 40.45 64.661C40.5276 62.9148 40.695 61.2698 41.1297 59.5803C41.1493 59.504 41.1689 59.4285 41.1912 59.3529C41.3781 58.7271 40.4014 58.4598 40.2151 59.0829L40.2158 59.0876Z" fill="#1B1B1B"/>
<path id="Vector_10" d="M101.226 40.5391L97.9464 45.4572L92.7138 53.3061L91.5042 55.1205C91.1417 55.6639 92.0186 56.1715 92.3817 55.6315L95.6608 50.7134L100.89 42.8625L102.1 41.0481C102.462 40.5047 101.585 39.9971 101.222 40.5371L101.226 40.5391Z" fill="#1B1B1B"/>
<path id="Vector_11" d="M80.3148 27.4963C79.8484 29.3188 79.6398 31.2297 79.5089 33.0988C79.2173 37.2595 79.5426 41.5066 80.6921 45.5249C81.4697 48.2431 82.6402 50.8513 84.2136 53.2023C84.574 53.7423 85.4515 53.2347 85.0911 52.6913C82.4586 48.7635 81.0357 44.1647 80.5922 39.4796C80.2859 36.1911 80.3993 32.877 80.9297 29.6171C81.0323 28.9982 81.1417 28.3751 81.2976 27.7663C81.4596 27.1345 80.4835 26.8652 80.3215 27.4963H80.3148Z" fill="#1B1B1B"/>
<path id="Vector_12" d="M26.0908 44.6938C27.0615 46.2382 27.9241 47.8596 28.7456 49.4863C30.5006 52.9606 32.0227 56.5793 33.0453 60.3404C33.6468 62.553 34.0713 64.823 34.1253 67.1201C34.1395 67.7708 35.1527 67.7728 35.1378 67.1201C35.0447 62.9351 33.8256 58.8081 32.3028 54.9356C31.0694 51.8132 29.6177 48.7815 27.9585 45.8629C27.6379 45.2973 27.3139 44.7323 26.9676 44.1822C26.6214 43.6321 25.7452 44.1397 26.0901 44.6932L26.0908 44.6938Z" fill="#1B1B1B"/>
<path id="Vector_13" d="M38.6469 40.5438C39.6176 41.8607 40.8555 43.0136 42.138 44.0173C44.8326 46.126 48.0274 47.5854 51.4679 47.8419C55.1217 48.1119 58.8504 47.0373 61.5409 44.5006C63.711 42.4547 65.0982 39.6744 65.8562 36.8178C66.1834 35.5892 66.3949 34.3327 66.488 33.0648C66.5555 32.1609 66.5609 31.2382 66.4023 30.3425C66.3781 30.2021 66.3456 30.0633 66.3051 29.9267C66.1167 29.3043 65.1393 29.5696 65.329 30.1967C65.3682 30.3286 65.3997 30.4627 65.4235 30.5983C65.433 30.6516 65.4654 30.8778 65.4458 30.7279C65.4575 30.8179 65.4676 30.9097 65.4762 31.0033C65.513 31.4298 65.5254 31.858 65.5133 32.2858C65.4869 33.3942 65.3526 34.4974 65.1123 35.5798C64.542 38.2528 63.4424 40.8961 61.6199 42.9636C60.6303 44.0962 59.4252 45.0205 58.0748 45.6825C56.4602 46.4669 54.6411 46.8267 52.853 46.8665C49.4699 46.9421 46.238 45.7264 43.5063 43.7851C42.5238 43.0838 41.6055 42.2966 40.7624 41.4327C40.4771 41.142 40.201 40.8428 39.9342 40.535C39.8442 40.4306 39.7553 40.3248 39.6675 40.2177L39.5751 40.103C39.5555 40.0787 39.465 39.9619 39.5393 40.0578C39.6135 40.1536 39.5393 40.0578 39.5217 40.0341C39.3584 39.8127 39.085 39.7068 38.8292 39.8526C38.6105 39.9768 38.4856 40.3251 38.6476 40.5451L38.6469 40.5438Z" fill="#1B1B1B"/>
<path id="Vector_14" d="M14.9132 69.735L18.7951 71.0303L24.9788 73.0938L26.3963 73.5663C27.0159 73.7729 27.2812 72.7955 26.6663 72.5903L22.7844 71.2949L16.6007 69.2315L15.1832 68.759C14.5635 68.5524 14.2983 69.5298 14.9132 69.735Z" fill="#1B1B1B"/>
<path id="Vector_15" d="M93.1365 116.374C107.027 116.374 118.288 105.113 118.288 91.2222C118.288 77.3312 107.027 66.0703 93.1365 66.0703C79.2455 66.0703 67.9846 77.3312 67.9846 91.2222C67.9846 105.113 79.2455 116.374 93.1365 116.374Z" fill="#5E59FF"/>
<path id="Vector_16" d="M103.903 97.3842C107.178 95.9714 108.953 92.3365 108.264 88.8792C107.606 85.5791 104.702 83.1477 101.392 82.8669C99.2506 82.6854 97.1237 83.4987 95.5685 84.9594L97.2607 85.4063C96.3508 82.9628 94.5944 80.8743 92.2589 79.6789C89.9099 78.4774 87.1424 78.1845 84.6017 78.9189C82.2102 79.6216 80.1457 81.1503 78.7758 83.2328C77.334 85.4164 76.8365 88.086 77.2449 90.6578C77.7215 93.6575 79.627 96.3217 82.2217 97.8661C82.4535 98.0016 82.7297 98.0395 82.9894 97.9714C83.2492 97.9033 83.4713 97.7348 83.6068 97.503C83.7423 97.2711 83.7802 96.995 83.7121 96.7352C83.644 96.4754 83.4755 96.2534 83.2436 96.1179C82.9932 95.9687 82.7482 95.8107 82.5119 95.64C82.4593 95.6022 82.4073 95.5639 82.356 95.5252C82.4829 95.6204 82.352 95.5252 82.3317 95.505C82.2068 95.403 82.0826 95.3025 81.9618 95.1924C81.7449 94.9994 81.5375 94.7969 81.3395 94.5849C81.2495 94.4904 81.1633 94.3944 81.0809 94.2967C81.0391 94.2477 80.9975 94.1982 80.9561 94.1482C80.9365 94.1239 80.7718 93.914 80.8744 94.049C80.5216 93.5839 80.2134 93.0867 79.9537 92.564C79.8956 92.4472 79.8416 92.3284 79.787 92.2096C79.656 91.9248 79.8241 92.3082 79.7552 92.1347C79.7309 92.0739 79.7066 92.0125 79.6837 91.9511C79.5728 91.6576 79.4768 91.3586 79.3961 91.0554C79.3232 90.7804 79.2629 90.5028 79.2152 90.2224C79.2011 90.1394 79.1876 90.0557 79.1761 89.9727C79.1822 90.0186 79.195 90.1461 79.1761 89.9389C79.1592 89.7688 79.1437 89.6014 79.1342 89.4279C79.1185 89.1449 79.1158 88.8614 79.1261 88.5774C79.1311 88.4361 79.1392 88.2953 79.1504 88.1549C79.1554 88.0928 79.161 88.0307 79.1673 87.9686C79.1673 87.9483 79.2058 87.6426 79.1754 87.8687C79.25 87.3249 79.3738 86.789 79.5453 86.2676C79.5827 86.1533 79.6223 86.0408 79.6641 85.9301C79.6848 85.8738 79.7062 85.8178 79.7282 85.762C79.7282 85.7694 79.8383 85.4981 79.7795 85.6338C79.7303 85.7472 79.8065 85.575 79.8187 85.5494C79.8504 85.4819 79.8808 85.4144 79.9132 85.3469C79.978 85.2119 80.0455 85.0798 80.1157 84.9507C80.2291 84.7423 80.3501 84.5387 80.4788 84.3398C80.5508 84.2282 80.6253 84.1182 80.7023 84.0097C80.7448 83.9496 80.7893 83.8902 80.8325 83.8308C80.9426 83.6783 80.79 83.8801 80.8636 83.7903C81.1963 83.3775 81.561 82.9916 81.9544 82.6361C82.0534 82.5461 82.154 82.4599 82.2561 82.3776C82.3011 82.3402 82.3461 82.3033 82.3911 82.2669C82.246 82.3816 82.3675 82.2851 82.3965 82.2669C82.624 82.1022 82.8535 81.9422 83.0938 81.7944C83.3089 81.6625 83.5287 81.5394 83.7533 81.4251C83.8727 81.3644 83.9942 81.3077 84.1157 81.251C84.1414 81.2388 84.3135 81.1632 84.2001 81.2118C84.0867 81.2604 84.3419 81.1551 84.3702 81.1443C84.8643 80.9536 85.3737 80.8052 85.893 80.7009C86.0435 80.6705 86.1947 80.6455 86.3466 80.6212C86.3851 80.6151 86.5451 80.5989 86.3534 80.6212L86.5383 80.601C86.8196 80.5731 87.1015 80.5578 87.3841 80.5551C87.6806 80.5519 87.977 80.5627 88.2731 80.5875C88.4033 80.5983 88.5336 80.6118 88.6632 80.6286C88.485 80.6057 88.6511 80.6286 88.6835 80.6334C88.7786 80.6502 88.8745 80.6651 88.9697 80.6833C89.5332 80.7896 90.0857 80.9477 90.62 81.1558C90.6788 81.1788 90.7375 81.2017 90.7955 81.2233C90.6126 81.1464 90.863 81.2557 90.8988 81.2726C91.041 81.3383 91.1814 81.4076 91.32 81.4805C91.5959 81.6254 91.8641 81.7829 92.1246 81.953C92.2542 82.0385 92.3818 82.1271 92.5073 82.2189C92.4952 82.2102 92.7368 82.3951 92.6275 82.3087C92.535 82.2358 92.7254 82.3897 92.7429 82.4039C92.9814 82.6014 93.2098 82.8105 93.428 83.031C93.6575 83.2625 93.8708 83.5068 94.0774 83.7593C94.1786 83.8835 93.9944 83.6466 94.0909 83.7748C94.1471 83.8491 94.2023 83.9242 94.2563 84.0003C94.3463 84.1272 94.4331 84.2561 94.5168 84.387C94.6847 84.6503 94.839 84.9203 94.9799 85.197C95.0474 85.3368 95.1149 85.4792 95.1824 85.6216C95.2499 85.764 95.1297 85.4866 95.1911 85.6398C95.2323 85.7424 95.2721 85.8423 95.3106 85.9483C95.5766 86.6618 96.4142 86.9473 97.0028 86.3952C97.1532 86.2505 97.3109 86.1138 97.4753 85.9854C97.3586 86.0745 97.5361 85.9449 97.5638 85.926C97.6353 85.8761 97.7075 85.8275 97.7804 85.7802C97.942 85.6763 98.108 85.5795 98.2786 85.49C98.3564 85.449 98.4347 85.4097 98.5135 85.3719C98.5769 85.3417 98.6411 85.3125 98.7059 85.2841C98.6267 85.3183 98.644 85.3122 98.7578 85.2659C99.1096 85.1363 99.4706 85.0334 99.8378 84.9581C100.196 84.8931 100.56 84.865 100.924 84.8744C101.096 84.8766 101.267 84.8859 101.439 84.9021C101.49 84.9068 101.696 84.9304 101.492 84.9021C101.583 84.9142 101.673 84.9297 101.762 84.9466C102.103 85.0098 102.439 85.1001 102.767 85.2166C102.834 85.2416 102.906 85.2686 102.977 85.2949C103.247 85.3975 102.802 85.2038 103.063 85.3327C103.198 85.4002 103.333 85.461 103.46 85.5318C103.615 85.6164 103.767 85.7064 103.916 85.8018C103.965 85.8342 104.013 85.8671 104.062 85.9004C104.094 85.9227 104.385 86.1447 104.21 86.005C104.462 86.2066 104.7 86.4259 104.921 86.6611C105.021 86.7684 105.114 86.8805 105.21 86.9919C105.398 87.2099 105.102 86.8299 105.268 87.0654C105.318 87.1377 105.37 87.2085 105.419 87.2821C105.601 87.5517 105.762 87.8344 105.902 88.1279C105.914 88.1522 106.032 88.4222 105.945 88.2123C105.968 88.2676 105.989 88.323 106.012 88.379C106.087 88.5752 106.152 88.775 106.207 88.9784C106.247 89.1246 106.282 89.2722 106.311 89.4212C106.329 89.511 106.344 89.6014 106.359 89.6912C106.391 89.8937 106.364 89.7378 106.359 89.6966C106.4 90.0777 106.41 90.4614 106.389 90.8441C106.383 90.9433 106.374 91.0419 106.364 91.1411C106.345 91.3436 106.356 91.2086 106.364 91.1647C106.336 91.3573 106.298 91.5483 106.252 91.7378C106.213 91.8935 106.17 92.0478 106.121 92.2008C106.091 92.2908 106.06 92.3808 106.026 92.4708C106.011 92.5107 105.915 92.7408 105.985 92.5815C105.82 92.9562 105.621 93.3147 105.389 93.6521C105.336 93.7295 105.281 93.8058 105.225 93.8809C105.329 93.7459 105.177 93.9376 105.15 93.9693C105.029 94.1124 104.903 94.2504 104.77 94.3831C104.615 94.5384 104.451 94.6808 104.284 94.8232C104.136 94.9501 104.233 94.8644 104.268 94.8387C104.168 94.9143 104.066 94.9866 103.961 95.0554C103.62 95.2811 103.258 95.4757 102.881 95.6366C102.379 95.8533 102.266 96.591 102.518 97.0217C102.822 97.5408 103.399 97.6022 103.903 97.3848V97.3842Z" fill="white"/>
<path id="Vector_17" d="M92.3546 90.4391V106.613C92.3546 107.143 92.8204 107.65 93.3671 107.626C93.9139 107.602 94.3796 107.181 94.3796 106.613V90.4391C94.3796 89.9092 93.9139 89.4023 93.3671 89.4266C92.8204 89.4509 92.3546 89.8714 92.3546 90.4391Z" fill="white"/>
<path id="Vector_18" d="M99.7339 96.2189L94.7834 90.0892L94.0834 89.2225C93.7527 88.8134 92.9866 88.8458 92.6518 89.2225L87.2032 95.3515L86.4316 96.2189C86.0685 96.6272 86.0266 97.2483 86.4316 97.6506C86.8015 98.0205 87.4988 98.061 87.8633 97.6506L93.3119 91.5216L94.0834 90.6542H92.6518L97.6022 96.7838L98.3022 97.6506C98.6457 98.0765 99.3761 98.0083 99.7339 97.6506C100.154 97.23 100.079 96.6455 99.7339 96.2189Z" fill="white"/>
</g>
<g id="Layer 22">
<path id="Vector_19" d="M69.1478 70.4653C66.3803 70.4653 64.5422 73.3152 64.5422 77.6143C64.5422 73.3152 62.7069 70.4653 59.9367 70.4653C62.7042 70.4653 64.5422 67.6155 64.5422 63.3164C64.5429 67.6155 66.3782 70.4653 69.1478 70.4653Z" fill="#5E59FF"/>
<path id="Vector_20" d="M116.977 57.1237C112.7 57.1237 109.864 61.5247 109.864 68.1653C109.864 61.5247 107.029 57.1237 102.751 57.1237C107.029 57.1237 109.864 52.7227 109.864 46.082C109.865 52.722 112.7 57.1237 116.977 57.1237Z" fill="#5E59FF"/>
</g>
</g>
</svg>
