<svg width="24" height="25" viewBox="0 0 24 25" fill="none" xmlns="http://www.w3.org/2000/svg">
<path d="M11.4998 2.52238L3.93846 4.03465L2.42619 11.596C2.40197 11.7171 2.40802 11.8423 2.4438 11.9604C2.47958 12.0786 2.54398 12.1861 2.63129 12.2734L12.4237 22.0659C12.4934 22.1355 12.5761 22.1908 12.6671 22.2285C12.7581 22.2661 12.8556 22.2855 12.9541 22.2855C13.0526 22.2855 13.1501 22.2661 13.2411 22.2285C13.3321 22.1908 13.4148 22.1355 13.4844 22.0659L21.9697 13.5806C22.0393 13.5109 22.0946 13.4283 22.1323 13.3373C22.17 13.2463 22.1894 13.1488 22.1894 13.0503C22.1894 12.9518 22.17 12.8542 22.1323 12.7632C22.0946 12.6723 22.0393 12.5896 21.9697 12.5199L12.1772 2.72748C12.0899 2.64018 11.9824 2.57577 11.8642 2.53999C11.7461 2.50421 11.6209 2.49816 11.4998 2.52238V2.52238Z" stroke="#AD6B46" stroke-width="2" stroke-linecap="round" stroke-linejoin="round"/>
<path d="M8.9375 7.9707C8.9375 8.55751 8.4618 9.0332 7.875 9.0332C7.2882 9.0332 6.8125 8.55751 6.8125 7.9707C6.8125 7.3839 7.2882 6.9082 7.875 6.9082C8.4618 6.9082 8.9375 7.3839 8.9375 7.9707Z" fill="#AD6B46" stroke="#AD6B46" stroke-width="0.125"/>
</svg>
