<svg width="24" height="25" viewBox="0 0 24 25" fill="none" xmlns="http://www.w3.org/2000/svg">
<path d="M20.25 4.5957H3.75C3.33579 4.5957 3 4.93149 3 5.3457V18.8457C3 19.2599 3.33579 19.5957 3.75 19.5957H20.25C20.6642 19.5957 21 19.2599 21 18.8457V5.3457C21 4.93149 20.6642 4.5957 20.25 4.5957Z" stroke="#AD6B46" stroke-width="2" stroke-linecap="round" stroke-linejoin="round"/>
<path d="M7.4375 7.9707C7.4375 8.55751 6.9618 9.0332 6.375 9.0332C5.7882 9.0332 5.3125 8.55751 5.3125 7.9707C5.3125 7.3839 5.7882 6.9082 6.375 6.9082C6.9618 6.9082 7.4375 7.3839 7.4375 7.9707Z" fill="#AD6B46" stroke="#AD6B46" stroke-width="0.125"/>
<path d="M10.125 9.0957C10.7463 9.0957 11.25 8.59202 11.25 7.9707C11.25 7.34938 10.7463 6.8457 10.125 6.8457C9.50368 6.8457 9 7.34938 9 7.9707C9 8.59202 9.50368 9.0957 10.125 9.0957Z" fill="#AD6B46"/>
</svg>
