<svg width="24" height="25" viewBox="0 0 24 25" fill="none" xmlns="http://www.w3.org/2000/svg">
<path d="M21 16.7194V7.47168C21 7.3386 20.9646 7.20792 20.8974 7.09304C20.8302 6.97817 20.7337 6.88324 20.6177 6.818L12.3677 2.17737C12.2554 2.11423 12.1288 2.08105 12 2.08105C11.8712 2.08105 11.7446 2.11423 11.6323 2.17737L3.3823 6.818C3.26632 6.88324 3.16978 6.97817 3.10259 7.09304C3.03541 7.20792 3 7.3386 3 7.47168V16.7194C3 16.8525 3.03541 16.9832 3.10259 17.098C3.16978 17.2129 3.26632 17.3078 3.3823 17.3731L11.6323 22.0137C11.7446 22.0769 11.8712 22.11 12 22.11C12.1288 22.11 12.2554 22.0769 12.3677 22.0137L20.6177 17.3731C20.7337 17.3078 20.8302 17.2129 20.8974 17.098C20.9646 16.9832 21 16.8525 21 16.7194Z" stroke="#AD6B46" stroke-width="2" stroke-linecap="round" stroke-linejoin="round"/>
<path d="M16.5958 14.3936V9.51861L7.5 4.50195" stroke="#AD6B46" stroke-width="2" stroke-linecap="round" stroke-linejoin="round"/>
<path d="M20.8965 7.09176L12.0889 12.0955L3.10376 7.09082" stroke="#AD6B46" stroke-width="2" stroke-linecap="round" stroke-linejoin="round"/>
<path d="M12.089 12.0957L12.001 22.1102" stroke="#AD6B46" stroke-width="2" stroke-linecap="round" stroke-linejoin="round"/>
</svg>
