<svg width="24" height="25" viewBox="0 0 24 25" fill="none" xmlns="http://www.w3.org/2000/svg">
<path d="M21 16.7189V7.47119C21 7.33811 20.9646 7.20743 20.8974 7.09256C20.8302 6.97768 20.7337 6.88275 20.6177 6.81751L12.3677 2.17688C12.2554 2.11374 12.1288 2.08057 12 2.08057C11.8712 2.08057 11.7446 2.11374 11.6323 2.17688L3.3823 6.81751C3.26632 6.88275 3.16978 6.97768 3.10259 7.09256C3.03541 7.20743 3 7.33811 3 7.47119V16.7189C3 16.852 3.03541 16.9827 3.10259 17.0976C3.16978 17.2124 3.26632 17.3074 3.3823 17.3726L11.6323 22.0132C11.7446 22.0764 11.8712 22.1095 12 22.1095C12.1288 22.1095 12.2554 22.0764 12.3677 22.0132L20.6177 17.3726C20.7337 17.3074 20.8302 17.2124 20.8974 17.0976C20.9646 16.9827 21 16.852 21 16.7189Z" stroke="#A0A8B0" stroke-width="2" stroke-linecap="round" stroke-linejoin="round"/>
<path d="M16.5958 14.3931V9.51812L7.5 4.50146" stroke="#A0A8B0" stroke-width="2" stroke-linecap="round" stroke-linejoin="round"/>
<path d="M20.8965 7.09127L12.0889 12.095L3.10376 7.09033" stroke="#A0A8B0" stroke-width="2" stroke-linecap="round" stroke-linejoin="round"/>
<path d="M12.089 12.0952L12.001 22.1097" stroke="#A0A8B0" stroke-width="2" stroke-linecap="round" stroke-linejoin="round"/>
</svg>
