<svg width="24" height="25" viewBox="0 0 24 25" fill="none" xmlns="http://www.w3.org/2000/svg">
<path d="M3.9889 14.7561L2.46891 13.2361C1.84891 12.6161 1.84891 11.5961 2.46891 10.9761L3.9889 9.45609C4.2489 9.19609 4.4589 8.68608 4.4589 8.32608V6.17606C4.4589 5.29606 5.1789 4.57608 6.0589 4.57608H8.2089C8.5689 4.57608 9.0789 4.36611 9.3389 4.10611L10.8589 2.58609C11.4789 1.96609 12.4989 1.96609 13.1189 2.58609L14.6389 4.10611C14.8989 4.36611 15.4089 4.57608 15.7689 4.57608H17.9189C18.7989 4.57608 19.5189 5.29606 19.5189 6.17606V8.32608C19.5189 8.68608 19.7289 9.19609 19.9889 9.45609L21.5089 10.9761C22.1289 11.5961 22.1289 12.6161 21.5089 13.2361L19.9889 14.7561C19.7289 15.0161 19.5189 15.5261 19.5189 15.8861V18.036C19.5189 18.916 18.7989 19.6361 17.9189 19.6361H15.7689C15.4089 19.6361 14.8989 19.8461 14.6389 20.1061L13.1189 21.6261C12.4989 22.2461 11.4789 22.2461 10.8589 21.6261L9.3389 20.1061C9.0789 19.8461 8.5689 19.6361 8.2089 19.6361H6.0589C5.1789 19.6361 4.4589 18.916 4.4589 18.036V15.8861C4.4589 15.5161 4.2489 15.0061 3.9889 14.7561Z" stroke="#A0A8B0" stroke-width="1.5" stroke-linecap="round" stroke-linejoin="round"/>
<path d="M9 15.0957L15 9.0957" stroke="#A0A8B0" stroke-width="1.5" stroke-linecap="round" stroke-linejoin="round"/>
<path d="M14.4945 14.5957H14.5035" stroke="#A0A8B0" stroke-width="2" stroke-linecap="round" stroke-linejoin="round"/>
<path d="M9.49451 9.5957H9.50349" stroke="#A0A8B0" stroke-width="2" stroke-linecap="round" stroke-linejoin="round"/>
</svg>
