<svg width="202" height="142" viewBox="0 0 202 142" fill="none" xmlns="http://www.w3.org/2000/svg">
<g id="no product">
<path id="Vector" d="M68.1588 107.059L64.1195 93.9313L61.584 85.6897C59.9112 86.3557 58.0368 87.0805 56.1287 87.8089C56.676 88.7001 57.2223 89.5922 57.7679 90.485C60.1991 94.4521 62.63 98.4201 65.0603 102.389L68.3976 107.835C68.3171 107.577 68.2403 107.317 68.1588 107.059ZM128.182 43.7749L128.062 43.9633C128.111 43.9045 128.161 43.8433 128.212 43.7905L128.182 43.7749ZM157.39 59.8057C156.136 61.9261 154.87 63.7021 153.862 64.7749C150.262 68.6149 148.702 64.8949 148.702 64.8949C143.302 68.4949 143.662 63.4549 143.662 63.4549C143.387 64.0079 143.022 64.5112 142.582 64.9441C142.291 65.2255 141.947 65.4465 141.57 65.5945C140.172 66.5701 137.824 68.5129 137.821 70.5637C136.662 70.7628 135.517 71.037 134.394 71.3845L134.309 71.3125C134.309 71.3125 132.104 67.1881 137.646 64.1497C137.006 63.0241 137.069 61.6525 137.069 61.6525C137.069 61.6525 134.069 64.8925 132.269 61.1605C131.28 59.1097 133.334 52.9009 135.389 47.7205L132.734 46.2638C130.739 47.6233 131.218 48.2089 130.77 49.6489C130.322 51.0889 126.99 53.1829 126.45 48.6889C126.332 47.6918 126.49 46.6814 126.907 45.7681L113.542 66.5138C113.542 66.5138 106.342 47.8549 99.8615 46.6549C96.8207 46.0921 91.4208 45.0529 86.5488 44.1085L85.9607 43.9885C80.6975 42.9685 76.1988 42.0889 76.1988 42.0889L75.864 43.7617L73.224 56.9689L72.894 56.9221L61.464 55.2889L60.504 40.1689C60.504 40.1689 42.984 40.2265 38.184 44.9977C33.3839 49.7689 9.38395 74.7289 3.38395 93.0889C-2.61605 111.449 2.18395 112.649 7.46395 115.289C12.744 117.929 24.984 115.289 32.9039 109.049V116.307H98.424L101.784 89.3689C101.784 89.3689 101.304 107.369 119.544 104.489C137.784 101.609 159.864 61.1569 159.864 61.1569L157.39 59.8057ZM56.1203 107.975C55.4202 107.975 54.7358 107.767 54.1536 107.378C53.5715 106.989 53.1177 106.436 52.8498 105.79C52.5819 105.143 52.5118 104.431 52.6484 103.744C52.785 103.058 53.1221 102.427 53.6172 101.932C54.1123 101.437 54.743 101.1 55.4297 100.963C56.1164 100.826 56.8282 100.896 57.4751 101.164C58.1219 101.432 58.6748 101.886 59.0638 102.468C59.4527 103.05 59.6604 103.735 59.6604 104.435C59.6604 105.374 59.2874 106.274 58.6235 106.938C57.9596 107.602 57.0592 107.975 56.1203 107.975ZM78.1404 70.2949C78.9803 72.3349 73.9404 74.6149 73.9404 74.6149C73.9404 74.6149 76.3403 74.3749 76.7003 75.9349C77.0027 77.2453 73.4075 80.1673 68.2632 82.7749C68.0399 82.8893 67.8136 83.0021 67.584 83.1133C66.8112 83.4913 66.0072 83.8597 65.184 84.215C64.3152 84.5869 63.2831 85.0117 62.1432 85.4677L61.5863 85.6897C59.9135 86.3557 58.0392 87.0805 56.1312 87.8089L55.5635 88.025C48.8435 90.5798 41.9039 93.095 41.9039 93.095L34.824 77.0149C34.824 77.0149 46.7519 72.2725 50.952 66.5125C55.152 60.7525 59.1672 59.5645 59.544 63.3349C59.784 65.7349 55.104 69.5749 55.104 69.5749C69.8016 64.1593 69.7439 61.5949 71.8907 61.8781C72.0889 61.9067 72.2847 61.95 72.4763 62.0077L72.504 62.0149C75.3432 62.8429 73.518 65.0701 73.464 65.1349C73.5576 65.0917 78.0312 62.9989 78.864 65.1349C79.644 67.1425 76.1759 68.8393 75.6815 69.0697C75.9816 68.9449 77.394 68.4793 78.1415 70.2949H78.1404Z" fill="#AD6B46"/>
<path id="Vector_2" d="M136.001 46.9787C136.942 44.6579 137.929 42.3515 139.001 40.0859C139.023 40.0461 139.036 40.0017 139.039 39.9561C139.042 39.9105 139.035 39.8649 139.018 39.8225C139.001 39.7802 138.974 39.7423 138.94 39.7116C138.906 39.681 138.866 39.6584 138.822 39.6455C136.535 39.1523 133.992 39.6023 131.855 40.5155L132.295 40.6943C132.289 40.6511 132.274 40.7627 132.295 40.6559C132.296 40.5508 132.287 40.4458 132.266 40.3427C132.241 39.9877 132.233 39.6316 132.244 39.2759C132.267 38.1844 132.475 37.1048 132.858 36.0827C134.154 32.7059 137.585 31.2827 141.018 31.2311C145.291 31.1603 149.556 32.7911 153.217 34.8803C155.026 35.8997 156.723 37.1063 158.28 38.4803C159.512 39.5831 160.697 40.8227 161.496 42.2831C162.59 44.2835 162.275 46.7003 161.77 48.8303C161.074 51.7667 159.857 54.5747 158.474 57.2471C158.297 57.5891 158.815 57.8939 158.993 57.5495C160.284 55.0535 161.426 52.4447 162.161 49.7255C162.716 47.6723 163.163 45.3227 162.548 43.2299C162.082 41.6399 160.926 40.2563 159.788 39.0911C158.348 37.6103 156.684 36.3311 154.944 35.2211C151.154 32.7935 146.707 30.9107 142.17 30.6515C138.577 30.4463 134.623 31.5023 132.776 34.8515C131.796 36.6884 131.428 38.7907 131.726 40.8515C131.759 41.0639 132.011 41.0915 132.167 41.0303C134 40.2467 136.564 39.7655 138.671 40.2203L138.492 39.7799C137.399 42.0911 136.392 44.4467 135.432 46.8155C135.287 47.1755 135.868 47.3291 136.01 46.9751L136.001 46.9787Z" fill="#1B1B1B"/>
<path id="Vector_3" d="M25.2382 48.5085C20.293 53.7249 15.6382 59.3553 11.6218 65.3145C10.1122 67.5525 8.6926 69.8673 7.549 72.3153C7.387 72.6633 7.909 72.9681 8.0674 72.6177C10.1482 68.1621 13.0642 64.0977 16.0582 60.2157C18.5782 56.9517 21.2398 53.7969 24.0022 50.7357C24.5506 50.1285 25.1002 49.5237 25.663 48.9357C25.9282 48.6561 25.5046 48.2301 25.2382 48.5109V48.5085Z" fill="#1B1B1B"/>
<path id="Vector_4" d="M163.493 66.3012C162.793 67.038 162.348 68.0868 162.106 69.0612C161.469 71.6124 162.252 74.244 163.572 76.446C164.717 78.3564 166.247 80.0256 167.892 81.5184C169.49 82.9716 171.222 84.3864 173.172 85.3356C174.958 86.202 177.51 86.8416 179.031 85.1328C180.213 83.8044 180.203 81.7584 179.572 80.184C178.815 78.2964 177.139 76.9776 175.098 76.8C172.505 76.5732 169.529 77.88 169.253 80.7228C168.946 83.9016 171.311 87.054 173.425 89.16C176.561 92.28 180.763 94.4124 185.164 94.9812C187.804 95.322 190.785 95.058 193.071 93.5772C193.199 93.4957 193.322 93.4071 193.44 93.312C193.739 93.072 193.313 92.6448 193.015 92.8872C192.997 92.9016 193.072 92.8524 192.989 92.9064C192.906 92.9604 192.819 93.0264 192.731 93.0804C192.447 93.26 192.151 93.4203 191.845 93.5604C190.702 94.0733 189.477 94.3812 188.227 94.47C184.099 94.8048 179.795 93.2784 176.448 90.9216C173.748 89.0208 171.129 86.2788 170.137 83.0556C169.785 81.9096 169.639 80.5872 170.212 79.4856C170.83 78.2976 172.114 77.7396 173.371 77.502C175.372 77.1252 177.391 77.7204 178.531 79.4808C179.371 80.7804 179.724 82.6092 179.031 84.0504C178.191 85.7964 176.201 85.824 174.576 85.2756C172.989 84.7404 171.549 83.766 170.243 82.7364C168.408 81.2964 166.666 79.6716 165.233 77.8164C163.583 75.6828 162.257 73.0548 162.497 70.2852C162.601 69.0768 163.085 67.7544 163.789 66.8688C163.828 66.8208 163.867 66.7728 163.909 66.7272C164.176 66.4476 163.752 66.0228 163.485 66.3024L163.493 66.3012Z" fill="#1B1B1B"/>
<path id="Vector_5" d="M71.3746 118.401C69.4954 121.862 66.973 125.184 64.0222 127.788C61.969 129.599 59.4094 131.233 56.5822 131.268C54.793 131.293 50.4178 130.501 51.0862 127.799C51.6334 125.586 54.5794 124.893 56.5078 125.279C58.4362 125.664 59.1658 127.262 58.9234 129.109C58.6078 131.515 57.1018 133.728 55.4182 135.402C53.1234 137.658 50.2095 139.18 47.047 139.776C43.0594 140.538 38.8366 140.934 34.7806 140.607C32.0542 140.388 29.2522 139.759 26.9806 138.167C26.5101 137.835 26.0685 137.465 25.6606 137.059C25.3858 136.787 24.961 137.211 25.2358 137.484C27.2218 139.449 29.869 140.484 32.587 140.939C36.5866 141.617 40.7218 141.289 44.7154 140.741C46.7554 140.461 48.745 140.113 50.6506 139.301C52.194 138.646 53.6301 137.762 54.9106 136.68C56.9422 134.96 58.717 132.633 59.3602 130.01C59.7958 128.232 59.617 126.018 57.8002 125.078C55.771 124.026 52.7746 124.542 51.2614 126.266C50.6446 126.969 50.2654 127.91 50.491 128.85C50.7598 129.968 51.7702 130.697 52.771 131.121C55.7146 132.368 58.8538 131.915 61.555 130.331C64.2058 128.771 66.391 126.474 68.275 124.075C69.548 122.465 70.7014 120.763 71.7262 118.985C71.7802 118.89 71.8342 118.795 71.887 118.698C72.0718 118.358 71.5534 118.055 71.3686 118.395L71.3746 118.401Z" fill="#1B1B1B"/>
<path id="Vector_6" d="M59.3804 81.6639C63.5876 80.0787 67.82 78.2199 71.612 75.7935C71.936 75.5859 71.636 75.0663 71.3096 75.2751C67.5608 77.6751 63.38 79.5171 59.2208 81.0843C58.8608 81.2187 59.018 81.8043 59.3804 81.6627V81.6639Z" fill="#1B1B1B"/>
<path id="Vector_7" d="M58.1723 77.3879L72.1595 70.9487L74.1467 70.0343C74.4971 69.8735 74.1923 69.3551 73.8443 69.5159L59.8571 75.9599L57.8699 76.8743C57.5195 77.0351 57.8243 77.5535 58.1723 77.3927V77.3879Z" fill="#1B1B1B"/>
<path id="Vector_8" d="M56.2723 73.7114L70.0831 67.2002L72.0391 66.2774C72.3883 66.113 72.0835 65.5958 71.7367 65.759L57.9259 72.2702L55.9699 73.193C55.6207 73.3574 55.9255 73.8746 56.2723 73.7114Z" fill="#1B1B1B"/>
<path id="Vector_9" d="M156.693 46.6548C155.439 50.886 153.933 55.1292 151.963 59.0808C151.309 60.3924 150.594 61.7136 149.65 62.8416C149.404 63.1356 149.826 63.5616 150.075 63.2664C151.847 61.146 152.981 58.482 154.035 55.9464C155.059 53.4744 155.955 50.9496 156.778 48.4032C156.948 47.8728 157.117 47.3424 157.276 46.8084C157.386 46.4376 156.807 46.2792 156.697 46.6488L156.693 46.6548Z" fill="#1B1B1B"/>
<path id="Vector_10" d="M151.172 43.2948C150.282 47.7535 148.872 52.0924 146.972 56.2224C146.125 58.0967 145.134 59.9022 144.006 61.6224C143.793 61.9452 144.312 62.2464 144.525 61.9248C147.91 56.814 150.027 50.8188 151.438 44.8848C151.551 44.4048 151.661 43.9356 151.755 43.4568C151.828 43.08 151.25 42.918 151.176 43.2972L151.172 43.2948Z" fill="#1B1B1B"/>
<path id="Vector_11" d="M145.091 39.6946C144.169 44.7886 142.691 49.9198 140.617 54.6598C139.798 56.5282 138.855 58.351 137.681 60.0226C137.459 60.3394 137.979 60.6394 138.2 60.325C140.321 57.3046 141.741 53.8078 142.915 50.329C143.875 47.4671 144.676 44.5542 145.315 41.6038C145.442 41.023 145.565 40.4398 145.675 39.8542C145.743 39.4762 145.165 39.3142 145.096 39.6946H145.091Z" fill="#1B1B1B"/>
<path id="Vector_12" d="M185.781 104.255C166.341 96.8154 155.541 84.5754 150.021 77.1354C144.501 69.6954 138.741 70.4154 138.741 70.4154C138.421 70.4634 138.112 70.5138 137.813 70.5666C136.655 70.7657 135.51 71.0399 134.386 71.3874C124.629 74.4534 125.361 81.7266 120.261 89.3754C114.501 98.0154 93.8611 111.455 79.6915 119.375C65.5219 127.295 72.1003 134.533 72.1003 134.533L200.181 119.375C202.101 117.455 205.221 111.695 185.781 104.255ZM191.901 117.016L88.0159 128.511C86.8279 128.642 86.2159 127.129 87.1663 126.4L136.954 88.1298C137.772 87.5007 138.756 87.1233 139.785 87.0436C140.814 86.9639 141.844 87.1854 142.749 87.681L192.338 114.807C192.558 114.928 192.734 115.116 192.84 115.343C192.946 115.571 192.977 115.827 192.928 116.073C192.879 116.32 192.753 116.544 192.567 116.713C192.382 116.883 192.147 116.989 191.897 117.016H191.901Z" fill="#1B1B1B"/>
<path id="Vector_13" d="M79.2454 20.2864C79.3183 19.7044 78.9056 19.1735 78.3236 19.1006C77.7416 19.0277 77.2108 19.4404 77.1379 20.0224C77.065 20.6044 77.4776 21.1353 78.0596 21.2082C78.6416 21.2811 79.1725 20.8684 79.2454 20.2864Z" fill="#1B1B1B"/>
<path id="Vector_14" d="M89.668 22.6624C89.7409 22.0804 89.3282 21.5495 88.7462 21.4766C88.1643 21.4037 87.6334 21.8164 87.5605 22.3984C87.4876 22.9804 87.9003 23.5112 88.4822 23.5841C89.0642 23.6571 89.5951 23.2444 89.668 22.6624Z" fill="#1B1B1B"/>
<path id="Vector_15" d="M82.5083 25.4317L83.4875 25.5769C83.7707 25.6189 84.1847 25.7617 84.4667 25.7221C84.9467 25.6561 84.9035 25.1521 84.6863 24.8269C84.5567 24.6325 84.3503 24.5581 84.1871 24.4033C83.5247 23.7769 84.0515 23.0221 83.9999 22.2613C83.9723 21.8545 84.5999 21.7597 84.6311 22.1701C84.6469 22.452 84.6231 22.7348 84.5603 23.0101C84.4691 23.4541 84.4211 23.7205 84.7727 24.0517C85.1495 24.4117 85.4375 24.6949 85.4651 25.2517C85.5503 26.9773 83.4251 26.2201 82.4315 26.0725C82.0259 26.0125 82.1039 25.3801 82.5107 25.4401L82.5083 25.4317Z" fill="#1B1B1B"/>
<path id="Vector_16" d="M39.2004 32.5197L61.9512 36.9249L66.4404 21.2697C64.9752 20.9781 63.6396 20.0601 63.0804 18.9693C62.5212 17.8785 61.4952 15.3321 64.1604 14.2173C66.8256 13.1025 68.046 15.7773 68.046 15.7773C73.3068 16.2729 82.29 8.80889 83.964 7.89209C85.638 6.97529 88.4256 6.57209 89.9916 9.93209C91.5576 13.2921 93.216 15.4965 93.8964 16.9197C93.8964 16.9197 92.5536 23.3577 91.0524 25.9089C89.5512 28.4601 87.4524 31.9017 84.0768 34.4289C80.7012 36.9561 77.3148 36.0969 77.3148 36.0969L76.806 39.7929L90.9516 42.5313L91.56 37.6797L93.2136 42.9693L103.696 44.9997C103.696 44.9997 105.166 40.1349 102.217 37.9389C99.2688 35.7429 103.396 31.1061 100.555 28.0641C97.7148 25.0221 97.5048 23.2785 97.2552 17.5545C97.0056 11.8305 96.1644 9.10889 94.4124 6.41729C94.4124 6.41729 92.9352 4.01729 85.6128 1.59449C78.2904 -0.82831 71.7204 1.89929 69.9888 3.71969C68.2572 5.54009 67.302 8.00009 64.3548 8.38289C61.4076 8.76569 55.2084 7.66289 52.4964 13.0185C49.7844 18.3741 52.5084 18.9285 50.0736 22.0605C47.6388 25.1925 40.4628 26.7681 39.2004 32.5197Z" fill="#1B1B1B"/>
<path id="Vector_17" d="M68.0156 26.1103C68.607 28.1548 69.5139 30.0946 70.7036 31.8595C71.9696 33.7615 73.6748 35.4691 75.764 36.3619C75.8085 36.3806 75.8568 36.3887 75.905 36.3857C75.9532 36.3826 76.0001 36.3684 76.0419 36.3443C76.0837 36.3201 76.1194 36.2866 76.1461 36.2463C76.1729 36.2061 76.1899 36.1602 76.196 36.1123C76.204 36.044 76.1894 35.9751 76.1545 35.9159C76.1196 35.8568 76.0663 35.8107 76.0028 35.7847C73.652 34.7935 71.8676 32.6839 70.61 30.5047C70.0288 29.4973 69.528 28.4456 69.1124 27.3595C68.9828 27.0247 68.8604 26.6863 68.7524 26.3443C68.7368 26.2951 68.6684 26.0719 68.6456 26.0023C68.6456 26.0023 68.6456 26.0107 68.6456 26.0167C68.5376 25.6291 67.9052 25.7167 68.0156 26.1103Z" fill="#1B1B1B"/>
<path id="Vector_18" d="M66.4542 18.4338C66.3186 17.3538 65.7487 15.3966 64.3423 16.341C64.0039 16.569 63.6102 16.0674 63.951 15.8382C64.8762 15.2166 65.8314 15.321 66.429 16.3026C66.7862 16.9301 67.0097 17.6246 67.0854 18.3426C67.1358 18.7494 66.5058 18.8418 66.4542 18.4338Z" fill="#1B1B1B"/>
<path id="Vector_19" d="M82.0617 28.1462C80.2329 26.759 77.3685 27.473 75.6753 28.9862C75.6348 29.0226 75.6048 29.0691 75.5885 29.121C75.5721 29.1729 75.5699 29.2283 75.5822 29.2813C75.5944 29.3343 75.6206 29.3831 75.6581 29.4226C75.6956 29.4621 75.7429 29.4908 75.7953 29.5058C76.9953 29.8538 80.0289 30.8545 81.7809 32.5165C81.8151 32.549 81.8564 32.5731 81.9015 32.5868C81.9466 32.6006 81.9944 32.6037 82.0409 32.5959C82.0874 32.5882 82.1315 32.5697 82.1697 32.5419C82.2078 32.5142 82.2391 32.478 82.2609 32.4362C82.7109 31.5662 83.6277 29.3342 82.0617 28.1462ZM82.1313 30.797C82.1259 30.8156 82.1153 30.8322 82.1007 30.845C82.0862 30.8579 82.0683 30.8663 82.0492 30.8693C82.0301 30.8723 82.0105 30.8698 81.9927 30.8621C81.9749 30.8544 81.9597 30.8418 81.9489 30.8258C80.8857 29.2322 78.5145 28.715 77.6445 28.5758C77.6229 28.5722 77.6031 28.5619 77.5879 28.5463C77.5726 28.5306 77.5628 28.5105 77.5599 28.4889C77.5569 28.4673 77.561 28.4453 77.5715 28.4261C77.5819 28.407 77.5983 28.3917 77.6181 28.3826C78.7425 27.8654 79.8717 27.7274 81.2889 28.373C82.5201 28.9358 82.2801 30.2786 82.1301 30.7982L82.1313 30.797Z" fill="#1B1B1B"/>
<path id="Vector_20" d="M87.9207 16.8782C87.9795 18.473 89.2971 19.655 90.7215 20.1242C91.0887 20.2442 91.2471 19.6658 90.8811 19.5458C89.7207 19.1642 88.5699 18.1946 88.5207 16.8782C88.5063 16.493 87.9063 16.4918 87.9207 16.8782Z" fill="#1B1B1B"/>
<path id="Vector_21" d="M80.1024 14.8804C79.4916 15.7084 78.0324 15.8884 76.9608 15.6424C76.5852 15.556 76.4244 16.1344 76.8012 16.2208C78.1212 16.5232 79.7532 16.3576 80.6196 15.1828C80.8488 14.872 80.328 14.572 80.1012 14.8804H80.1024Z" fill="#1B1B1B"/>
<path id="Vector_22" d="M94.2917 70.4745L99.1241 85.1997L99.8117 87.2961C99.9317 87.6561 100.511 87.5049 100.39 87.1365L95.5577 72.4113L94.8701 70.3197C94.7501 69.9597 94.1705 70.1109 94.2917 70.4793V70.4745Z" fill="#1B1B1B"/>
<path id="Vector_23" d="M113.283 66.3599C112.068 68.1191 111.012 70.0043 110.036 71.9027C108.125 75.6227 106.498 79.5995 105.855 83.7467C105.495 86.0387 105.461 88.3954 106.053 90.6526C106.15 91.0258 106.73 90.8675 106.631 90.4931C105.551 86.3759 106.575 81.9563 107.984 78.0467C109.184 74.7059 110.8 71.5067 112.643 68.4755C113.015 67.8635 113.394 67.2527 113.801 66.6635C114.021 66.3455 113.501 66.0443 113.283 66.3611V66.3599Z" fill="#1B1B1B"/>
<path id="Vector_24" d="M67.5851 83.1128C67.8139 83.0016 68.0403 82.8888 68.2643 82.7744C67.7691 85.2224 67.2731 87.67 66.7763 90.1172L65.7431 95.2136C65.6663 95.5928 65.0879 95.432 65.1647 95.0552C65.1707 95.024 65.1791 94.994 65.1827 94.964C65.2763 94.2932 65.4551 93.6236 65.5895 92.9612C65.8727 91.5604 66.1563 90.1604 66.4403 88.7612L67.5851 83.1128Z" fill="#1B1B1B"/>
<path id="Vector_25" d="M76.0967 44.1315C76.0907 44.1615 76.0823 44.1927 76.0775 44.2227C75.9851 44.8935 75.8063 45.5619 75.6719 46.2255C75.3887 47.6255 75.1051 49.0255 74.8211 50.4255C74.0387 54.2871 73.2563 58.1479 72.4739 62.0079C72.2822 61.9501 72.0865 61.9068 71.8883 61.8783C71.9315 61.6671 71.9735 61.4571 72.0167 61.2459L72.8915 56.9259C73.4227 54.3067 73.9539 51.6867 74.4851 49.0659L75.5183 43.9695C75.5243 43.9316 75.5386 43.8956 75.5602 43.8639C75.5818 43.8322 75.6101 43.8056 75.6431 43.7862C75.6761 43.7667 75.713 43.7547 75.7512 43.7511C75.7894 43.7476 75.8278 43.7525 75.8639 43.7655C75.9431 43.7835 76.0119 43.8321 76.0555 43.9006C76.0991 43.9692 76.1139 44.0521 76.0967 44.1315Z" fill="#1B1B1B"/>
<path id="Vector_26" d="M68.2622 91.6859L73.2434 82.4255L73.9634 81.0923C74.1458 80.7527 73.6286 80.4491 73.445 80.7899L68.4638 90.0503L67.7438 91.3835C67.5614 91.7231 68.0786 92.0267 68.2622 91.6859Z" fill="#1B1B1B"/>
<path id="Vector_27" d="M85.9665 43.9721L82.3809 58.9553L81.8721 61.0805L82.1613 60.8597H78.2001C77.8137 60.8597 77.8137 61.4597 78.2001 61.4597H82.1601C82.2256 61.4588 82.2891 61.4369 82.3412 61.3972C82.3933 61.3574 82.4312 61.3019 82.4493 61.2389L86.0361 46.2605L86.5449 44.1317C86.6349 43.7561 86.0565 43.5965 85.9665 43.9721Z" fill="#1B1B1B"/>
<path id="Vector_28" d="M50.84 42.8142V61.1622C50.84 61.5486 51.44 61.5486 51.44 61.1622V42.8142C51.44 42.4278 50.84 42.4278 50.84 42.8142Z" fill="#1B1B1B"/>
<path id="Vector_29" d="M69.1219 110.165C68.5675 109.26 68.0123 108.354 67.4563 107.447L60.1639 95.5435L55.5835 88.0687C55.5745 88.0547 55.5668 88.0398 55.5607 88.0243C55.4275 87.7123 55.9087 87.4507 56.1019 87.7651L56.1283 87.8083C56.6755 88.6995 57.2219 89.5915 57.7675 90.4843C60.1987 94.4515 62.6295 98.4195 65.0599 102.388L68.3971 107.834C68.3167 107.576 68.2375 107.317 68.1571 107.059L64.1179 93.9307L61.5823 85.6891L61.5727 85.6579C61.4623 85.2979 62.0035 85.1407 62.1391 85.4671C62.1438 85.4772 62.1478 85.4876 62.1511 85.4983L63.0847 88.5343L67.1239 101.661L69.6691 109.935C69.7735 110.269 69.2959 110.449 69.1219 110.165Z" fill="#1B1B1B"/>
<path id="Vector_30" d="M42.4824 95.286L46.0824 101.046L46.1904 100.636L36.1104 106.834L34.6704 107.716C34.3416 107.917 34.6428 108.436 34.9728 108.234L45.0528 102.036L46.4928 101.154C46.5606 101.113 46.6098 101.047 46.63 100.971C46.6501 100.894 46.6397 100.813 46.6008 100.744L43.0008 94.9836C42.7968 94.6572 42.2808 94.9572 42.4824 95.286Z" fill="#1B1B1B"/>
<path id="Vector_31" d="M32.3423 77.954C29.1791 78.9632 26.0915 80.2976 23.1023 81.7448C17.6699 84.3848 12.1307 87.6728 8.24387 92.3888C6.23507 94.8272 4.74827 97.7048 4.51667 100.896C4.48907 101.281 5.08907 101.28 5.11667 100.896C5.54867 94.9508 10.3871 90.3776 14.9735 87.152C19.3715 84.0584 24.2687 81.656 29.2703 79.7036C30.3347 79.2884 31.4075 78.8816 32.4971 78.5336C32.8631 78.4136 32.7071 77.8376 32.3375 77.9552L32.3423 77.954Z" fill="#1B1B1B"/>
<path id="Vector_32" d="M130.55 41.4752C128.763 42.2924 127.171 43.9148 126.482 45.752C125.942 47.192 125.854 49.196 126.698 50.5424C127.339 51.566 128.54 51.8372 129.625 51.3824C130.682 50.9444 131.683 49.8044 131.272 48.596C131.152 48.236 130.569 48.3884 130.694 48.7556C130.999 49.652 130.214 50.4752 129.446 50.8112C128.379 51.278 127.37 50.8196 126.974 49.7312C126.045 47.1752 127.344 44.51 129.362 42.9296C129.821 42.5594 130.322 42.2441 130.855 41.99C131.205 41.8292 130.9 41.312 130.552 41.4716L130.55 41.4752Z" fill="#1B1B1B"/>
</g>
</svg>
