<svg width="24" height="25" viewBox="0 0 24 25" fill="none" xmlns="http://www.w3.org/2000/svg">
<path d="M8.25 15.0952C10.9424 15.0952 13.125 12.9126 13.125 10.2202C13.125 7.52783 10.9424 5.34521 8.25 5.34521C5.55761 5.34521 3.375 7.52783 3.375 10.2202C3.375 12.9126 5.55761 15.0952 8.25 15.0952Z" stroke="#A0A8B0" stroke-width="2" stroke-miterlimit="10"/>
<path d="M14.5698 5.52695C15.2403 5.33803 15.9436 5.29499 16.6321 5.40074C17.3207 5.50648 17.9786 5.75855 18.5615 6.13996C19.1444 6.52138 19.6389 7.02328 20.0115 7.61187C20.3841 8.20046 20.6263 8.86207 20.7217 9.55213C20.8171 10.2422 20.7635 10.9447 20.5645 11.6123C20.3655 12.2799 20.0258 12.8971 19.5682 13.4224C19.1107 13.9476 18.5458 14.3687 17.9118 14.6573C17.2777 14.9459 16.5892 15.0953 15.8926 15.0954" stroke="#A0A8B0" stroke-width="2" stroke-linecap="round" stroke-linejoin="round"/>
<path d="M1.49976 18.6012C2.26113 17.5182 3.2719 16.6342 4.44674 16.024C5.62158 15.4138 6.92598 15.0953 8.24983 15.0952C9.57369 15.0952 10.8781 15.4136 12.053 16.0237C13.2279 16.6339 14.2387 17.5177 15.0002 18.6006" stroke="#A0A8B0" stroke-width="2" stroke-linecap="round" stroke-linejoin="round"/>
<path d="M15.8926 15.0952C17.2166 15.0943 18.5213 15.4123 19.6962 16.0225C20.8712 16.6327 21.8819 17.517 22.6426 18.6006" stroke="#A0A8B0" stroke-width="2" stroke-linecap="round" stroke-linejoin="round"/>
</svg>
