<svg width="24" height="25" viewBox="0 0 24 25" fill="none" xmlns="http://www.w3.org/2000/svg">
<path d="M12 21.0957C16.9706 21.0957 21 17.0663 21 12.0957C21 7.12514 16.9706 3.0957 12 3.0957C7.02944 3.0957 3 7.12514 3 12.0957C3 17.0663 7.02944 21.0957 12 21.0957Z" stroke="#A0A8B0" stroke-width="2" stroke-linecap="round" stroke-linejoin="round"/>
<path d="M12 15.0957C14.0711 15.0957 15.75 13.4168 15.75 11.3457C15.75 9.27464 14.0711 7.5957 12 7.5957C9.92893 7.5957 8.25 9.27464 8.25 11.3457C8.25 13.4168 9.92893 15.0957 12 15.0957Z" stroke="#A0A8B0" stroke-width="2" stroke-linecap="round" stroke-linejoin="round"/>
<path d="M5.9812 18.787C6.54615 17.6763 7.40744 16.7435 8.46973 16.092C9.53202 15.4405 10.7539 15.0957 12 15.0957C13.2462 15.0957 14.468 15.4405 15.5303 16.092C16.5926 16.7435 17.4539 17.6763 18.0189 18.787" stroke="#A0A8B0" stroke-width="2" stroke-linecap="round" stroke-linejoin="round"/>
</svg>
