<svg width="24" height="25" viewBox="0 0 24 25" fill="none" xmlns="http://www.w3.org/2000/svg">
<path d="M20.0045 10.3719L12.504 3.55297C12.3659 3.42745 12.186 3.3579 11.9995 3.35791C11.8129 3.35792 11.633 3.42747 11.4949 3.553L3.99545 10.3719C3.91814 10.4422 3.85637 10.5279 3.8141 10.6234C3.77183 10.719 3.75 10.8223 3.75 10.9268V19.5951C3.75 19.794 3.82902 19.9847 3.96967 20.1254C4.11032 20.266 4.30109 20.3451 4.5 20.3451H19.5C19.6989 20.3451 19.8897 20.266 20.0303 20.1254C20.171 19.9847 20.25 19.794 20.25 19.5951V10.9268C20.25 10.8223 20.2282 10.719 20.1859 10.6234C20.1436 10.5279 20.0818 10.4422 20.0045 10.3719Z" stroke="#A0A8B0" stroke-width="2" stroke-linecap="round" stroke-linejoin="round"/>
</svg>
